<?xml version="1.0" encoding="utf-8"?>
<!-- Generator: Adobe Illustrator 17.0.0, SVG Export Plug-In . SVG Version: 6.00 Build 0)  -->
<!DOCTYPE svg PUBLIC "-//W3C//DTD SVG 1.1//EN" "http://www.w3.org/Graphics/SVG/1.1/DTD/svg11.dtd">
<svg version="1.1" xmlns="http://www.w3.org/2000/svg" xmlns:xlink="http://www.w3.org/1999/xlink" x="0px" y="0px" width="16px"
	 height="16px" viewBox="-34.375 0 16 16" enable-background="new -34.375 0 16 16" xml:space="preserve">
<g id="Guids">
</g>
<g id="Layer_2">
	<g>
		<path d="M-29.879,1.888h3.168l0.352-0.624c0.106-0.182,0.21-0.272,0.312-0.272c0.101,0,0.453,0.184,1.056,0.552
			s0.904,0.619,0.904,0.752c0,0.134-0.166,0.259-0.496,0.376v1.584l0.016,0.816c0,0.182-0.158,0.323-0.472,0.424
			s-0.712,0.152-1.192,0.152c-0.149,0-0.224-0.112-0.224-0.336V5.008h-3.744c-0.106,1.078-0.219,1.872-0.336,2.384
			c0.405,0.149,0.752,0.293,1.04,0.432h0.656V7.552c0-0.512-0.027-1.2-0.08-2.064c1.12,0.086,1.757,0.158,1.912,0.216
			c0.154,0.059,0.232,0.136,0.232,0.232s-0.107,0.197-0.32,0.304v1.584h0.608c0.202-0.352,0.344-0.573,0.424-0.664
			s0.152-0.136,0.216-0.136c0.128,0,0.427,0.144,0.896,0.432S-24.21,7.925-24.135,8c0.074,0.075,0.112,0.149,0.112,0.224
			c0,0.139-0.134,0.25-0.4,0.336v3.199c0,0.555-0.04,0.944-0.12,1.168c-0.08,0.225-0.286,0.4-0.616,0.528s-0.613,0.192-0.848,0.192
			c-0.235,0-0.368-0.091-0.4-0.272c-0.075-0.512-0.304-0.885-0.688-1.12v1.393l0.016,1.279c0,0.106-0.032,0.205-0.096,0.296
			s-0.235,0.179-0.512,0.265c-0.277,0.085-0.525,0.128-0.744,0.128s-0.352-0.021-0.4-0.064s-0.072-0.111-0.072-0.208
			c0-0.096,0.01-0.312,0.032-0.647s0.032-0.729,0.032-1.177V8.352h-0.4c-0.043,0.128-0.144,0.213-0.304,0.255v4.353
			c0,0.203-0.152,0.362-0.456,0.48c-0.304,0.117-0.605,0.176-0.904,0.176c-0.171,0-0.28-0.024-0.328-0.072s-0.072-0.114-0.072-0.2
			l0.032-0.735c0.021-0.31,0.032-0.635,0.032-0.977v-1.68c-0.427,1.291-0.931,2.373-1.512,3.248
			c-0.582,0.874-0.925,1.312-1.032,1.312c-0.011,0-0.016-0.019-0.016-0.056s0.032-0.131,0.096-0.28
			c0.544-1.162,0.976-2.712,1.296-4.647c0.32-1.937,0.48-4.179,0.48-6.729c0-0.576-0.006-1.184-0.016-1.824
			C-31.335,1.211-30.647,1.515-29.879,1.888z M-26.455,4.48V2.416h-3.44c-0.064,0.096-0.109,0.333-0.136,0.712
			c-0.027,0.379-0.067,0.83-0.12,1.352H-26.455z M-27.095,11.952c0.363,0.021,0.611-0.026,0.744-0.145
			c0.133-0.117,0.2-0.346,0.2-0.688V8.352h-0.944V11.952z M-21.191,1.072c0.224,0.011,0.621,0.056,1.192,0.136
			c0.57,0.08,0.893,0.158,0.968,0.232c0.074,0.075,0.112,0.155,0.112,0.24c0,0.181-0.144,0.331-0.432,0.448v11.44
			c0,0.501-0.032,0.853-0.096,1.056c-0.064,0.202-0.179,0.368-0.344,0.496c-0.166,0.128-0.475,0.245-0.928,0.352
			c-0.453,0.106-0.744,0.16-0.872,0.16c-0.278,0-0.427-0.102-0.448-0.304c-0.053-0.522-0.235-0.901-0.544-1.136
			c-0.31-0.235-0.709-0.405-1.2-0.513c-0.085-0.021-0.128-0.059-0.128-0.111c0-0.086,0.059-0.117,0.176-0.097
			c0.618,0.086,1.109,0.128,1.472,0.128s0.637-0.037,0.824-0.111c0.187-0.075,0.28-0.219,0.28-0.433V2.496
			C-21.159,1.963-21.17,1.488-21.191,1.072z M-23.767,3.408c0.384,0.021,0.779,0.059,1.184,0.112
			c0.405,0.054,0.653,0.104,0.744,0.152c0.09,0.048,0.136,0.115,0.136,0.2s-0.096,0.192-0.288,0.32v5.632l0.032,1.439
			c0,0.267-0.184,0.443-0.552,0.528c-0.368,0.086-0.648,0.128-0.84,0.128s-0.312-0.016-0.36-0.048s-0.072-0.085-0.072-0.16
			l0.032-0.608c0.01-0.479,0.016-0.922,0.016-1.327V4.688C-23.735,4.208-23.746,3.782-23.767,3.408z"/>
	</g>
</g>
</svg>
