<?xml version="1.0" encoding="utf-8"?>
<!-- Generator: Adobe Illustrator 17.0.0, SVG Export Plug-In . SVG Version: 6.00 Build 0)  -->
<!DOCTYPE svg PUBLIC "-//W3C//DTD SVG 1.1//EN" "http://www.w3.org/Graphics/SVG/1.1/DTD/svg11.dtd">
<svg version="1.1" xmlns="http://www.w3.org/2000/svg" xmlns:xlink="http://www.w3.org/1999/xlink" x="0px" y="0px" width="16px"
	 height="16px" viewBox="-34.375 0 16 16" enable-background="new -34.375 0 16 16" xml:space="preserve">
<g id="Guids">
</g>
<g id="Layer_2">
	<g>
		<path d="M-21.671,6.88c0.341-0.618,0.568-1,0.68-1.144c0.112-0.144,0.206-0.216,0.28-0.216c0.128,0,0.496,0.227,1.104,0.68
			c0.608,0.453,0.912,0.768,0.912,0.944c0,0.176-0.155,0.264-0.464,0.264h-3.776v6.096c0,0.672-0.107,1.125-0.32,1.36
			c-0.213,0.234-0.59,0.416-1.128,0.544c-0.539,0.128-0.92,0.191-1.144,0.191c-0.214,0-0.331-0.117-0.352-0.352
			c-0.032-0.32-0.176-0.582-0.432-0.784s-0.64-0.373-1.152-0.512c-0.192-0.054-0.288-0.099-0.288-0.136
			c0-0.038,0.101-0.057,0.304-0.057c0.778-0.011,1.333-0.048,1.664-0.111c0.331-0.064,0.544-0.174,0.64-0.328
			c0.096-0.155,0.144-0.413,0.144-0.776v-3.76c-0.907,1.216-1.854,2.227-2.84,3.032c-0.987,0.805-2.07,1.456-3.248,1.951
			c-1.179,0.496-1.896,0.744-2.152,0.744c-0.054,0-0.08-0.011-0.08-0.031c0-0.054,0.096-0.129,0.288-0.225
			c1.44-0.746,2.73-1.709,3.872-2.888c1.142-1.179,2.042-2.499,2.704-3.96h-2.528l-0.336,0.48c-0.064,0.096-0.139,0.144-0.224,0.144
			s-0.259-0.045-0.52-0.136c-0.262-0.09-0.531-0.208-0.808-0.352s-0.44-0.243-0.488-0.296c-0.048-0.053-0.072-0.112-0.072-0.176
			c0-0.064,0.027-0.112,0.08-0.144c0.267-0.128,0.451-0.28,0.552-0.456c0.101-0.176,0.266-0.624,0.496-1.344
			c0.229-0.72,0.408-1.426,0.536-2.12c0.704,0.235,1.221,0.43,1.552,0.584c0.331,0.155,0.528,0.267,0.592,0.336
			s0.096,0.141,0.096,0.216c0,0.118-0.07,0.182-0.208,0.192c-0.139,0.011-0.238,0.045-0.296,0.104
			c-0.059,0.059-0.174,0.317-0.344,0.776l-0.608,1.664h3.984V2.72h-6.384c-0.214,0-0.406,0.059-0.576,0.176l-0.416-0.752
			c0.256,0.032,0.522,0.048,0.8,0.048h9.664c0.427-0.842,0.736-1.264,0.928-1.264c0.128,0,0.496,0.229,1.104,0.688
			s0.912,0.757,0.912,0.896s-0.112,0.208-0.336,0.208h-3.408c-0.032,0.096-0.107,0.187-0.224,0.272V6.88H-21.671z"/>
	</g>
</g>
</svg>
