<?xml version="1.0" encoding="utf-8"?>
<!-- Generator: Adobe Illustrator 17.0.0, SVG Export Plug-In . SVG Version: 6.00 Build 0)  -->
<!DOCTYPE svg PUBLIC "-//W3C//DTD SVG 1.1//EN" "http://www.w3.org/Graphics/SVG/1.1/DTD/svg11.dtd">
<svg version="1.1" xmlns="http://www.w3.org/2000/svg" xmlns:xlink="http://www.w3.org/1999/xlink" x="0px" y="0px" width="16px"
	 height="16px" viewBox="-34.375 0 16 16" enable-background="new -34.375 0 16 16" xml:space="preserve">
<g id="Guids">
</g>
<g id="Layer_2">
	<g>
		<path d="M-26.199,10.064h3.024c0.085-0.192,0.187-0.379,0.304-0.561s0.203-0.285,0.256-0.312c0.054-0.027,0.123-0.04,0.208-0.04
			c0.203,0,0.619,0.162,1.248,0.487c0.629,0.326,0.944,0.59,0.944,0.792c0,0.139-0.155,0.268-0.464,0.385v3.439
			c0,0.182,0.005,0.336,0.016,0.464l0.032,0.353c0,0.16-0.187,0.285-0.56,0.376c-0.374,0.09-0.87,0.136-1.488,0.136
			c-0.085,0-0.141-0.016-0.168-0.048c-0.026-0.032-0.04-0.096-0.04-0.192v-1.2h-3.408v1.12c0,0.064-0.016,0.112-0.048,0.145
			c-0.032,0.032-0.144,0.08-0.336,0.144c-0.192,0.064-0.451,0.12-0.776,0.168s-0.589,0.072-0.792,0.072
			c-0.075,0-0.106-0.054-0.096-0.16c0.021-0.245,0.032-0.64,0.032-1.184v-2.88c-0.885,0.917-1.846,2.102-2.88,3.552
			c-0.064,0.096-0.125,0.144-0.184,0.144s-0.109-0.037-0.152-0.111l-0.608-0.864c-0.363-0.512-0.571-0.808-0.624-0.888
			c-0.054-0.08-0.08-0.145-0.08-0.192s0.026-0.093,0.08-0.136c0.395-0.234,0.592-0.507,0.592-0.816v-5.28h-0.96
			c-0.213,0-0.406,0.059-0.576,0.176L-34.119,6.4c0.256,0.032,0.522,0.048,0.8,0.048h0.976c0.064-0.128,0.165-0.301,0.304-0.52
			s0.224-0.336,0.256-0.352c0.032-0.016,0.064-0.024,0.096-0.024c0.117,0,0.461,0.158,1.032,0.472
			c0.57,0.315,0.856,0.552,0.856,0.712c0,0.16-0.198,0.299-0.592,0.416v5.041c0.875-0.405,1.568-0.747,2.08-1.024V10.72
			c0-0.447-0.016-0.901-0.048-1.359C-27.538,9.562-26.818,9.798-26.199,10.064z M-32.599,1.44c0.928,0,1.693,0.168,2.296,0.504
			s0.904,0.755,0.904,1.256c0,0.352-0.131,0.656-0.392,0.912c-0.262,0.256-0.549,0.384-0.864,0.384c-0.315,0-0.56-0.08-0.736-0.24
			c-0.176-0.16-0.264-0.373-0.264-0.64l0.016-0.4c0-0.384-0.072-0.696-0.216-0.936c-0.144-0.24-0.414-0.461-0.808-0.664
			c-0.106-0.064-0.16-0.109-0.16-0.136C-32.823,1.454-32.749,1.44-32.599,1.44z M-26.135,2.56h-2.192
			c-0.213,0-0.405,0.059-0.576,0.176l-0.416-0.752c0.256,0.032,0.522,0.048,0.8,0.048h5.872c0.256-0.458,0.442-0.773,0.56-0.944
			c0.117-0.17,0.229-0.256,0.336-0.256c0.106,0,0.274,0.08,0.504,0.24c0.229,0.16,0.469,0.342,0.72,0.544
			c0.25,0.203,0.421,0.357,0.512,0.464s0.136,0.203,0.136,0.288c0,0.128-0.091,0.192-0.272,0.192h-3.952
			c-0.021,0.021-0.064,0.048-0.128,0.08l-0.512,2.048h1.36c0.17-0.352,0.296-0.579,0.376-0.68c0.08-0.101,0.146-0.152,0.2-0.152
			c0.128,0,0.496,0.152,1.104,0.456S-20.791,4.846-20.791,5c0,0.155-0.182,0.296-0.544,0.424l-0.128,2.528h0.048
			c0.341-0.544,0.568-0.883,0.68-1.016c0.112-0.133,0.2-0.2,0.264-0.2c0.107,0,0.405,0.216,0.896,0.648
			c0.491,0.432,0.736,0.723,0.736,0.872c0,0.149-0.118,0.224-0.352,0.224h-9.984c-0.214,0-0.406,0.059-0.576,0.176l-0.416-0.752
			c0.256,0.032,0.522,0.048,0.8,0.048h1.984l0.64-2.736h-1.248c-0.213,0-0.405,0.059-0.576,0.176l-0.416-0.752
			c0.256,0.032,0.522,0.048,0.8,0.048h1.552L-26.135,2.56z M-22.887,13.616v-3.024h-3.072c-0.064,0.075-0.176,0.149-0.336,0.225v2.8
			H-22.887z M-24.871,5.216l-0.688,2.736h2.208l0.128-2.736H-24.871z"/>
	</g>
</g>
</svg>
